<svg width="250" height="250" viewBox="0 0 250 250" fill="none" xmlns="http://www.w3.org/2000/svg">
<path d="M172.823 160.381L219.74 133.29C222.227 131.851 223.763 129.182 223.763 126.318V72.1365C223.763 69.2724 222.227 66.6038 219.74 65.1647L172.823 38.0741C170.336 36.635 167.249 36.649 164.776 38.0741L117.859 65.1647C115.372 66.6038 113.835 69.2724 113.835 72.1365V168.959L80.9326 187.946L48.0297 168.959V130.971L80.9326 111.983L102.63 124.516V99.0317L84.9564 88.8185C83.7409 88.1199 82.3437 87.7427 80.9326 87.7427C79.5215 87.7427 78.1243 88.1199 76.9088 88.8185L29.9925 115.909C27.5056 117.348 25.9688 120.017 25.9688 122.881V177.062C25.9688 179.927 27.5056 182.595 29.9925 184.034L76.9088 211.125C79.3957 212.55 82.4695 212.55 84.9564 211.125L131.873 184.034C134.36 182.595 135.896 179.927 135.896 177.062V80.24L136.483 79.9047L168.786 61.2527L201.688 80.24V118.229L168.786 137.216L147.116 124.711V150.195L164.762 160.381C167.249 161.806 170.336 161.806 172.809 160.381H172.823Z" fill="white"/>
</svg>