<svg width="250" height="250" viewBox="0 0 250 250" fill="none" xmlns="http://www.w3.org/2000/svg">
<path d="M47.2461 38.6366C44.0107 38.4715 40.6627 38.3001 37.8238 40.6514C36.402 41.829 34.5919 43.6712 35.2875 46.0631C35.3561 46.2999 35.4453 46.5302 35.5543 46.7514C35.5844 46.8119 35.6253 46.8624 35.658 46.9205C35.7372 47.0692 35.8267 47.2121 35.9258 47.3482C35.9701 47.4058 36.0257 47.4534 36.0726 47.5079C36.1739 47.6302 36.2836 47.7453 36.4009 47.8524C36.4572 47.9014 36.5244 47.9405 36.5844 47.9864C36.71 48.0869 36.842 48.1792 36.9796 48.2627C37.049 48.3029 37.1286 48.3333 37.2016 48.37C37.3504 48.4483 37.5036 48.518 37.6603 48.5789C37.7449 48.61 37.8398 48.6321 37.9284 48.6594C38.0935 48.7108 38.2598 48.7623 38.4398 48.8005C38.5447 48.8227 38.6599 48.8355 38.77 48.8533C38.948 48.882 39.1249 48.9113 39.3153 48.9282C39.4484 48.9399 39.5919 48.9421 39.7309 48.9482C39.8739 48.9543 40.008 48.9686 40.1575 48.9686C40.2361 48.9686 40.3159 48.9686 40.3961 48.9662C43.7711 48.8957 47.2064 48.913 50.5269 48.9315C51.5006 48.9366 52.4742 48.9404 53.4476 48.9429C53.7691 48.944 54.0898 48.9464 54.4124 48.9469C54.3898 49.1121 54.3636 49.2726 54.339 49.4344C54.3082 49.6302 54.2796 49.8284 54.2445 50.0196C54.2078 50.2157 54.1665 50.4049 54.1262 50.5957C54.0871 50.7812 54.0504 50.9691 54.0071 51.15C53.9621 51.3379 53.9106 51.5184 53.8612 51.7005C53.8139 51.8759 53.7695 52.0537 53.7174 52.2243C53.6636 52.4025 53.6029 52.5729 53.5445 52.7467C53.4895 52.9118 53.4357 53.0806 53.3757 53.2421C53.3126 53.412 53.2423 53.5746 53.1739 53.7395C53.1102 53.8946 53.0493 54.0525 52.9812 54.2032C52.9089 54.3639 52.8293 54.5168 52.7522 54.6725C52.6801 54.8182 52.611 54.9672 52.5346 55.1087C52.4528 55.2604 52.3634 55.4045 52.2766 55.5514C52.1966 55.6872 52.1196 55.8266 52.0354 55.9578C51.9436 56.101 51.8445 56.2358 51.7482 56.3738C51.66 56.5002 51.575 56.6307 51.4827 56.7521C51.3811 56.8864 51.2717 57.0127 51.1653 57.142C51.0693 57.2586 50.9768 57.3786 50.8768 57.4907C50.7647 57.6169 50.6444 57.7349 50.5271 57.8558C50.424 57.9622 50.3253 58.0725 50.2176 58.1751C50.0943 58.293 49.9625 58.4024 49.8341 58.5152C49.724 58.6116 49.618 58.7121 49.5038 58.8048C49.3681 58.9149 49.2235 59.0172 49.0818 59.1222C48.9664 59.2081 48.8552 59.2982 48.7363 59.3804C48.5862 59.4838 48.4272 59.5787 48.2714 59.6765C48.1521 59.7514 48.0371 59.8308 47.9143 59.9024C47.7464 60.0004 47.5694 60.089 47.3951 60.1805C47.2754 60.2435 47.1607 60.311 47.038 60.371C46.8384 60.4684 46.629 60.5567 46.4213 60.6462C46.3156 60.6919 46.2147 60.7425 46.107 60.7862C45.7874 60.9158 45.4586 61.0367 45.1206 61.149C44.6548 61.3035 44.1876 61.436 43.719 61.5466C43.57 61.582 43.4206 61.6031 43.2714 61.6346C42.952 61.702 42.6327 61.7724 42.3127 61.8223C42.0973 61.8561 41.8819 61.8739 41.6663 61.9003C41.4131 61.9313 41.1597 61.9695 40.9065 61.9912C40.6496 62.0134 40.3928 62.0205 40.1359 62.0337C39.9251 62.0445 39.7139 62.0627 39.5034 62.068C39.2269 62.075 38.9519 62.0695 38.6763 62.068C38.4864 62.068 38.2954 62.0721 38.106 62.068C37.8163 62.0609 37.5288 62.0434 37.2407 62.0288C37.0671 62.0198 36.8921 62.0157 36.7194 62.0044C36.4301 61.986 36.1435 61.959 35.857 61.9343C35.6868 61.9196 35.5152 61.9084 35.3457 61.8921C35.0901 61.8675 34.8376 61.8381 34.584 61.8104C34.3949 61.7897 34.2042 61.771 34.0163 61.749C26.5873 55.8266 24.0772 47.3614 27.3008 39.0933C30.6327 30.5492 37.7752 26.3606 47.9431 26.9775C50.2334 27.7412 52.4499 28.7104 54.5656 29.8734L54.5733 29.878C54.9194 30.0757 55.2603 30.2813 55.596 30.4949L55.6043 30.5004C55.9393 30.7142 56.2685 30.9367 56.5916 31.1679L56.6037 31.1769C56.9245 31.4073 57.2387 31.6471 57.5465 31.8963L57.5714 31.9174C57.8728 32.1632 58.1673 32.4186 58.4549 32.6836L58.5054 32.7326C58.7816 32.9895 59.0507 33.2565 59.3127 33.5335C59.3421 33.5647 59.3696 33.5983 59.3989 33.6299C59.6432 33.8932 59.882 34.1638 60.112 34.4462C60.1608 34.506 60.2064 34.5702 60.2545 34.631C60.4586 34.8878 60.6582 35.151 60.8499 35.4247C60.922 35.528 60.989 35.6375 61.0591 35.7431C61.2169 35.9801 61.373 36.2201 61.5211 36.4687C61.6207 36.637 61.7134 36.8139 61.8081 36.988C61.9145 37.1825 62.022 37.3757 62.1224 37.5775C62.2508 37.8384 62.3719 38.1096 62.4905 38.3836C62.5325 38.4797 62.576 38.5738 62.6167 38.6716L48.904 38.7083C48.3536 38.6926 47.8 38.6641 47.2463 38.6359" fill="#868E96"/>
<path d="M39.1965 62.9903C39.0864 62.9903 38.9763 62.9894 38.8662 62.9885L38.6704 62.9868H38.4623L38.0823 62.9852C37.8438 62.9793 37.6053 62.9668 37.3686 62.954L33.6477 62.6294L33.443 62.4661C25.6858 56.2812 23.0702 47.4191 26.4463 38.7602C29.9357 29.8091 37.3891 25.4183 47.9989 26.0618L48.2473 26.1117C50.5918 26.8894 52.8594 27.8819 55.0212 29.0766C55.3882 29.2864 55.7419 29.4986 56.09 29.7214C56.4476 29.9498 56.7907 30.1812 57.127 30.4223C57.4757 30.6728 57.8041 30.9232 58.1256 31.1841C58.4679 31.4641 58.7775 31.7315 59.0797 32.0098C59.4232 32.3318 59.7068 32.612 59.9819 32.9039C60.3305 33.283 60.5822 33.5685 60.8246 33.8661L60.9751 34.0608C61.1903 34.3325 61.4015 34.6098 61.6033 34.8988L61.7532 35.125C61.9918 35.4844 62.1554 35.7367 62.3116 36C62.394 36.1395 62.4716 36.2828 62.549 36.4261L61.8518 37.0628L62.6563 36.6224C62.7549 36.8022 62.8532 36.982 62.9462 37.169C63.0829 37.4457 63.2101 37.731 63.3349 38.0191L63.9936 39.5855L48.9088 39.6266C48.3378 39.6106 47.7923 39.5829 47.2468 39.5552L47.1976 39.5528C43.9971 39.3897 40.974 39.2358 38.4115 41.3579C36.4416 42.9895 35.751 44.3618 36.171 45.8071C36.2246 45.9921 36.2942 46.172 36.3792 46.3449C36.522 46.5804 36.5811 46.6922 36.6565 46.7902C36.8532 47.0034 36.9231 47.088 37.0062 47.1604C37.2466 47.3355 37.3379 47.4085 37.4423 47.4689L37.6165 47.5503C37.7346 47.6131 37.8562 47.6692 37.9807 47.7182L37.9311 48.6595L38.2025 47.7832C38.3493 47.8285 38.4845 47.8718 38.6324 47.903L38.9187 47.9476C39.0955 47.9762 39.2418 48.0006 39.3985 48.0144L40.1599 48.0511L40.3801 48.0489C43.8362 47.9766 47.3949 47.9966 50.5347 48.014L55.466 48.0307L55.2606 49.4912L54.4124 49.596L55.223 49.721L55.052 50.6536L54.0963 50.7409L54.9953 50.9268L54.7825 51.814L53.8245 51.8426L54.7111 52.0782L54.4575 52.915L53.4992 52.887L54.3702 53.1752L54.0737 53.9693L53.1196 53.8761L53.9702 54.2196L53.6331 54.9644L52.6891 54.804L53.5148 55.2051L53.3432 55.5455C53.2766 55.6691 53.2058 55.788 53.1346 55.9069L52.2053 55.6772L52.9994 56.1359L52.8089 56.4533C52.7344 56.5699 52.6555 56.6818 52.5763 56.7937L51.668 56.4924L52.4249 57.0108L52.2157 57.3058C52.1328 57.4159 52.0455 57.5207 51.9589 57.6254L51.0756 57.2554L51.7899 57.8311L51.5642 58.1014C51.4724 58.2043 51.3763 58.3032 51.2798 58.401L50.4279 57.9625L51.0943 58.5931L50.8536 58.8386C50.7532 58.9348 50.648 59.0262 50.5427 59.1172L49.7259 58.6142L50.3396 59.2961L50.0849 59.5162C49.9739 59.6067 49.858 59.6922 49.7416 59.7775L48.9651 59.2128L49.5233 59.9408L49.26 60.1353C49.1365 60.2205 49.0077 60.3005 48.8787 60.3806L48.1457 59.759L48.6457 60.528L48.3789 60.6949C48.2385 60.7768 48.0925 60.8531 47.9462 60.9291L47.262 60.2538L47.7033 61.0582L47.4435 61.1951C47.2613 61.2841 47.0716 61.3661 46.8819 61.448L46.2947 60.7045L46.678 61.5379L46.4542 61.6364C46.1163 61.7734 45.7688 61.9012 45.4118 62.0199C44.9205 62.1828 44.4279 62.3226 43.9338 62.4391L43.6247 62.5015L43.2738 61.6346L43.3362 62.5591C43.0426 62.6213 42.7502 62.6832 42.4568 62.7289C42.3028 62.7531 42.1487 62.7701 41.9946 62.7868L41.5583 62.8395C41.3678 62.8645 41.1773 62.889 40.9873 62.9054C40.7911 62.9223 40.5955 62.9312 40.4001 62.9401L39.5286 62.9852C39.4163 62.9887 39.3064 62.9903 39.1965 62.9903ZM38.681 61.1522L38.8829 61.1537C39.0814 61.1555 39.2799 61.1575 39.4794 61.1524L40.3155 61.1085C40.4863 61.1008 40.6574 61.0935 40.8284 61.0788C40.9915 61.0648 41.1544 61.0421 41.3175 61.0217L42.1713 60.9175C42.4322 60.8768 42.6927 60.821 42.9531 60.7658L43.5067 60.6557C43.9496 60.5502 44.3914 60.4249 44.832 60.2797C45.1509 60.174 45.461 60.06 45.7624 59.9375L46.0571 59.806C46.3164 59.6942 46.4791 59.6243 46.6353 59.548L47.0978 59.3025C47.2176 59.2401 47.3376 59.1783 47.4525 59.1113L50.548 56.4499L52.3779 53.2637L53.3399 49.8608L50.5218 49.8498C47.393 49.8323 43.8474 49.8131 40.415 49.8843L40.1572 49.8868C40.0414 49.8868 39.9333 49.8804 39.8251 49.8734L39.6087 48.9445L39.5768 49.8619C39.4605 49.8576 39.344 49.8532 39.2337 49.8435C39.0319 49.8252 38.8429 49.796 38.6539 49.7654C38.4315 49.7325 38.3376 49.7182 38.2493 49.6995C38.0451 49.6564 37.8559 49.5989 37.6673 49.5406C37.499 49.4927 37.4181 49.469 37.3427 49.4411C37.1564 49.3694 36.9743 49.2872 36.7972 49.1949C36.662 49.1327 36.5886 49.0978 36.5207 49.0586C36.3522 48.9574 36.1904 48.8454 36.0363 48.7234C35.9544 48.6687 35.8754 48.6097 35.7998 48.5467C35.6558 48.4166 35.5209 48.2767 35.3961 48.1281C35.3262 48.0586 35.2603 47.9851 35.1989 47.9079C35.0731 47.7373 34.9596 47.5579 34.8591 47.3713C34.8125 47.3035 34.7703 47.2328 34.7328 47.1595C34.5999 46.89 34.4909 46.6092 34.4073 46.3204C33.4626 43.0726 36.3047 40.7185 37.2383 39.9448C40.3509 37.3666 44.0364 37.5545 47.2881 37.7202L47.2457 38.6365L47.2923 37.7204L47.3373 37.7226C47.8694 37.7497 48.4015 37.7776 48.9297 37.7919L61.183 37.7584C61.1375 37.6732 61.0912 37.5888 61.0448 37.5044L60.7312 36.9356C60.5921 36.7013 60.4443 36.4756 60.2953 36.2516L60.0975 35.9499C59.9171 35.6918 59.7279 35.4441 59.5353 35.2008L60.1118 34.4463L59.4006 35.0257C59.1832 34.7589 58.9571 34.503 58.7261 34.254C58.3971 33.8999 58.1415 33.6485 57.8799 33.4037C57.559 33.1045 57.2786 32.8625 56.9918 32.6289C56.6749 32.3704 56.3746 32.1421 56.0685 31.9221C55.7474 31.6915 55.4318 31.4786 55.1107 31.2737C54.7805 31.0627 54.4515 30.8651 54.1183 30.6748C52.0885 29.5532 49.9604 28.6197 47.7606 27.8858C38.0917 27.3372 31.3144 31.326 28.1559 39.4266C25.117 47.221 27.445 55.2172 34.3818 60.8659L37.2875 61.1124C37.6868 61.1335 37.9069 61.1454 38.1286 61.1509L38.4504 61.152L38.681 61.1522Z" fill="white"/>
<path d="M49.3364 39.5142C49.4282 39.5867 49.5183 39.661 49.6091 39.7355C49.6959 39.8059 49.7829 39.8751 49.8689 39.9469C49.9581 40.0214 50.0456 40.0986 50.134 40.1746C50.2225 40.2505 50.308 40.3214 50.3937 40.3982C50.4715 40.4672 50.5471 40.5395 50.6239 40.61C50.7183 40.6964 50.8137 40.7815 50.9065 40.8702L50.9186 40.8823C51.7579 41.6677 52.4896 42.5607 53.0946 43.5382L53.0999 43.5466C53.2162 43.7398 53.3263 43.9376 53.4301 44.14L53.4428 44.1631C53.543 44.3597 53.6358 44.5615 53.723 44.767L53.7428 44.8108C53.8259 45.0096 53.9008 45.2145 53.9707 45.4211L53.9962 45.4917C54.0611 45.6897 54.1171 45.8934 54.1689 46.0994C54.1782 46.1361 54.1898 46.1719 54.1986 46.2095C54.2446 46.4029 54.2813 46.6022 54.3153 46.8029C54.3244 46.858 54.3366 46.9104 54.3448 46.9655C54.3725 47.149 54.3903 47.3385 54.4074 47.5284C54.4145 47.6073 54.4246 47.6842 54.4298 47.7644C54.4408 47.9326 54.4421 48.1066 54.4443 48.28C54.4443 48.3646 54.4479 48.448 54.4468 48.5337C53.136 48.532 51.825 48.5269 50.5139 48.5185C49.5871 48.5128 48.6374 48.5128 47.6972 48.5093C45.2695 48.5012 42.8204 48.5012 40.3885 48.553C37.7447 48.5957 36.2115 47.7561 35.6856 45.9475C35.0572 43.789 36.756 42.0722 38.0892 40.9685C38.3083 40.7891 38.5366 40.6213 38.7731 40.4658C38.8323 40.4264 38.8918 40.388 38.9516 40.3505C39.1683 40.2142 39.3872 40.0872 39.6096 39.9755L39.6569 39.9498C39.8945 39.8322 40.1356 39.7316 40.3788 39.639C40.4417 39.6151 40.505 39.5924 40.5683 39.57C40.7852 39.4933 41.0037 39.4232 41.2244 39.3645C41.2545 39.3562 41.2844 39.3461 41.3147 39.3382C41.5613 39.2742 41.8101 39.2225 42.0609 39.1772C42.1275 39.1652 42.1947 39.1544 42.2617 39.1436C42.4773 39.1087 42.694 39.079 42.9117 39.0557C42.9532 39.0513 42.9945 39.045 43.036 39.041C43.2881 39.0164 43.5418 38.9994 43.7961 38.9872C43.8666 38.9839 43.9372 38.9816 44.0077 38.9792C44.2189 38.9715 44.4304 38.9671 44.6422 38.9661C44.6914 38.9661 44.7405 38.9647 44.7899 38.9649C45.1783 38.9649 45.5679 38.9751 45.957 38.9898L46.0137 38.9916C46.4189 39.0076 46.8238 39.0283 47.2269 39.0485C47.7614 39.0761 48.2961 39.1036 48.8282 39.1195C48.9063 39.179 48.9843 39.2403 49.0625 39.3008C49.153 39.3716 49.2449 39.4417 49.3364 39.5142Z" fill="white"/>
<path d="M40.209 49.471C37.2509 49.471 35.4344 48.3721 34.8038 46.2027C33.9342 43.2156 36.6203 40.9918 37.5028 40.261C37.7464 40.0614 38.0001 39.8746 38.263 39.7014L38.4619 39.5729C38.7037 39.4208 38.9481 39.2793 39.1958 39.1549C39.4741 39.0153 39.7596 38.8904 40.051 38.7808L40.2608 38.7043C40.4993 38.6195 40.7411 38.5432 40.9841 38.4777C41.3521 38.3795 41.6237 38.3227 41.8967 38.2735L42.1009 38.239C42.3451 38.1995 42.578 38.1678 42.8119 38.1425C43.2123 38.1008 43.4811 38.0828 43.7506 38.0691L43.9341 38.0617C44.2117 38.0518 44.4488 38.0467 44.6825 38.0469C45.2115 38.0469 45.6 38.0566 45.9895 38.0713L47.2715 38.1305C47.8001 38.1577 48.3285 38.1843 48.8544 38.2006L49.148 38.2098L49.5489 38.5168L49.1388 39.3595L49.699 38.6329L50.1078 38.9573L49.6904 39.8001L50.2665 39.0861L50.6504 39.407L50.216 40.2437L50.8115 39.5465L51.1643 39.8597L50.7017 40.6806L51.319 40.0017L51.5391 40.2059C52.4434 41.05 53.2308 42.0111 53.8806 43.0637C54.0134 43.2839 54.1331 43.4998 54.2463 43.7206C54.3699 43.9615 54.4718 44.1826 54.5674 44.4081C54.6804 44.6747 54.763 44.8993 54.8398 45.1275C54.9393 45.4235 55.0013 45.6477 55.0584 45.8749C55.1415 46.2084 55.1822 46.4275 55.2197 46.6486C55.282 47.0288 55.3022 47.2358 55.3209 47.4449L55.3452 47.7042C55.3562 47.8737 55.3587 48.049 55.3609 48.2242L55.3639 48.5449L55.3516 49.4511L47.6939 49.426C45.2735 49.4177 42.8316 49.4179 40.4076 49.4695C40.3406 49.4706 40.2743 49.471 40.209 49.471ZM42.0596 39.1762L42.2226 40.0791C41.9947 40.1202 41.7681 40.1672 41.5437 40.2259C41.2642 40.3032 41.0679 40.3656 40.8732 40.4346C40.5972 40.5324 40.3266 40.6449 40.0626 40.7716C39.8241 40.8936 39.6305 41.0063 39.4388 41.1268L39.2802 41.2278C39.0702 41.3656 38.8675 41.5144 38.6731 41.6734C36.847 43.1853 36.1971 44.4239 36.5656 45.6895C36.8359 46.6194 37.5125 47.6801 40.3727 47.6345C42.8075 47.5827 45.2642 47.5825 47.6994 47.5908L54.1443 47.6135L54.4066 47.5268L53.4931 47.6088C53.4777 47.4374 53.4619 47.2662 53.4369 47.1005C53.3795 46.7739 53.3468 46.5947 53.3054 46.4205C53.232 46.1372 53.1819 45.9541 53.1237 45.7763C53.0377 45.5262 52.9705 45.3424 52.8956 45.1637C52.799 44.9383 52.7153 44.7561 52.6246 44.5785C52.519 44.374 52.4195 44.1932 52.3138 44.0185C51.7503 43.1072 51.0678 42.275 50.2843 41.5441L48.5001 40.0252C48.0607 40.0087 47.6194 39.9865 47.179 39.9639L45.9767 39.9067C45.5429 39.8907 45.1644 39.8812 44.7869 39.8806C44.4427 39.8828 44.2409 39.887 44.0392 39.8944L43.7947 38.9856L43.8385 39.9021C43.6 39.9135 43.3615 39.9292 43.124 39.9524C42.8072 39.9878 42.6066 40.0153 42.407 40.0476L42.0596 39.1762Z" fill="white"/>
<path d="M57.2601 65.8608C51.7827 66.2053 46.2839 65.9245 40.8702 65.0238C38.5285 64.6969 36.3233 63.7268 34.5 62.2214C34.5824 62.2306 34.6664 62.2374 34.7492 62.2462C34.991 62.2719 35.2336 62.2958 35.4771 62.3181C35.6605 62.3352 35.8431 62.3513 36.0275 62.3664C36.2739 62.3866 36.5214 62.4031 36.7693 62.4188C36.9545 62.4306 37.139 62.4421 37.3247 62.4511C37.5723 62.4631 37.8201 62.4695 38.0695 62.4763C38.2568 62.4812 38.4438 62.4869 38.6319 62.4882C38.6985 62.4882 38.7643 62.4924 38.8311 62.4924C38.9476 62.4924 39.0653 62.4832 39.182 62.4816C39.5062 62.4776 39.8306 62.4686 40.1559 62.4519C40.3456 62.4421 40.535 62.4286 40.7247 62.4143C41.0432 62.39 41.3617 62.3574 41.6806 62.3188C41.8682 62.2961 42.0555 62.2737 42.2432 62.2455C42.5843 62.1944 42.925 62.1291 43.2659 62.059C43.4278 62.0258 43.5896 61.9983 43.7514 61.9605C44.2516 61.8431 44.7514 61.7084 45.2498 61.5431C45.6002 61.4267 45.9411 61.3014 46.2723 61.1671C51.1921 59.1714 53.9942 55.1597 54.8285 48.9493H54.8517L54.8579 48.7583L54.886 48.5366H54.8566C54.8592 48.3198 54.8605 48.1034 54.8502 47.8944C54.8458 47.8012 54.8337 47.7124 54.8267 47.6207C54.8128 47.4385 54.7997 47.2557 54.7764 47.0792C54.7623 46.9713 54.741 46.868 54.7236 46.7624C54.6979 46.6073 54.6737 46.4515 54.641 46.3009C54.6175 46.1921 54.5878 46.0871 54.5608 45.9805C54.5241 45.8387 54.4898 45.6963 54.4482 45.5585C54.4157 45.4515 54.3783 45.3482 54.3425 45.2437C54.2974 45.1119 54.2526 44.98 54.2023 44.8517C54.1616 44.7475 54.1168 44.6462 54.0726 44.5442C54.0194 44.4209 53.966 44.298 53.9075 44.1772C53.859 44.0765 53.8073 43.978 53.7557 43.8795C53.695 43.7635 53.6335 43.6479 53.5687 43.5349C53.5137 43.4382 53.4557 43.3431 53.3974 43.2485C53.3298 43.1384 53.2612 43.0297 53.1902 42.9228C53.1284 42.8299 53.0653 42.7382 53.0009 42.6475C52.9275 42.5439 52.8527 42.4415 52.7765 42.3402C52.7089 42.2508 52.6403 42.1624 52.5706 42.0749C52.4919 41.9764 52.4119 41.8791 52.3304 41.783C52.2585 41.698 52.1864 41.6138 52.1128 41.5307C52.0289 41.4364 51.9436 41.3437 51.8578 41.2516C51.7816 41.1703 51.7058 41.0892 51.6282 41.0096C51.5407 40.9199 51.4519 40.832 51.3625 40.7443C51.2836 40.6668 51.2049 40.5892 51.124 40.5133C51.0323 40.4272 50.9405 40.343 50.8488 40.2588C50.7675 40.1854 50.6868 40.1107 50.6047 40.0386C50.5106 39.9558 50.4154 39.8751 50.3202 39.794C50.2378 39.7239 50.155 39.6531 50.073 39.5843C49.9748 39.503 49.8763 39.4241 49.7778 39.3448C49.6969 39.2795 49.6163 39.2135 49.535 39.1494L49.5018 39.1226L62.813 39.0859C62.9343 39.2602 63.0369 39.439 63.1457 39.6162C63.2448 39.7779 63.3545 39.9371 63.4437 40.101C63.5488 40.294 63.6336 40.4909 63.7257 40.6863C63.804 40.8529 63.8921 41.0175 63.9616 41.1855C64.0435 41.3833 64.1071 41.5833 64.1776 41.7828C64.237 41.9514 64.306 42.1189 64.3572 42.2883C64.4194 42.4916 64.4657 42.6958 64.5176 42.8998C64.5602 43.0664 64.6104 43.2327 64.646 43.3993C64.6917 43.6095 64.7236 43.8193 64.7602 44.0292C64.788 44.1892 64.8227 44.3497 64.8458 44.5092C64.8787 44.7369 64.9009 44.9622 64.9242 45.1881C64.9391 45.3273 64.9609 45.4681 64.9719 45.6064C64.995 45.8719 65.0086 46.1332 65.0225 46.3943C65.0277 46.4904 65.0369 46.5888 65.0409 46.6842C65.0561 47.039 65.0646 47.3889 65.0688 47.7319C65.1225 52.0382 65.1205 56.4175 65.1189 60.653C65.118 62.3682 65.1184 64.0834 65.12 65.7984C62.4998 65.7291 59.8373 65.7955 57.2601 65.8608Z" fill="#868E96"/>
<path d="M51.8264 66.8668C48.0915 66.929 44.3598 66.6117 40.689 65.9198C38.1811 65.5658 35.8224 64.5171 33.8795 62.8924L31.8379 61.0025L34.6028 61.3067L34.712 61.9924L34.7872 61.9111L34.8489 61.3309L38.6406 61.5678L38.8336 62.4894L38.8472 61.572L39.1727 61.5619C39.4846 61.5579 39.7978 61.5493 40.1114 61.5333L40.6581 61.4966C40.9629 61.4735 41.2679 61.4416 41.5732 61.4049L42.1102 61.3351C42.435 61.2867 42.7592 61.2241 43.0836 61.1575L43.5447 61.0641C44.0185 60.9531 44.4917 60.8256 44.9636 60.6693C45.295 60.5592 45.6172 60.4408 45.9302 60.3141C50.5191 58.4522 53.1334 54.6939 53.9218 48.8241L53.944 48.659L53.9415 48.523C53.9437 48.3247 53.9453 48.1271 53.936 47.9359L54.8288 47.6175L53.9141 47.6872C53.8994 47.4951 53.8884 47.343 53.869 47.1957L53.2532 44.953L51.856 42.6442L48.9692 39.867L46.8982 38.236L49.5011 38.202L63.2942 38.1641L63.5694 38.5587C63.6723 38.7055 63.7637 38.8569 63.8547 39.0075L64.0259 39.2837C64.1052 39.4079 64.1837 39.5325 64.2527 39.6589C64.34 39.8195 64.4156 39.982 64.4912 40.1448L64.6356 40.449C64.6982 40.576 64.76 40.7029 64.8132 40.8316C64.8806 40.9943 64.9376 41.1583 64.994 41.3227L65.1057 41.6358C65.1529 41.7625 65.1995 41.8893 65.2384 42.0169C65.2888 42.182 65.3301 42.3471 65.3714 42.5135L65.4543 42.8345C65.4875 42.9567 65.5204 43.079 65.5461 43.2014C65.5828 43.3734 65.6127 43.5447 65.6415 43.7161L65.7573 44.3744C65.7853 44.568 65.8055 44.7598 65.8255 44.9513L64.9475 45.3533L65.858 45.241L65.8894 45.5242C65.9123 45.7886 65.9261 46.0489 65.9404 46.3091L65.9609 46.6421C65.9767 47.0061 65.9853 47.3654 65.9897 47.7175C66.0431 52.0008 66.0415 56.3561 66.0398 60.5706L66.0426 66.7375L65.0993 66.7125C62.4843 66.6433 59.8419 66.7103 57.2866 66.7751L57.2634 65.8576L57.2733 66.7751C55.4739 66.8209 53.655 66.8668 51.8264 66.8668ZM57.2258 64.9413L57.2625 65.8587L57.2392 64.9413C59.5144 64.8837 61.8568 64.8243 64.205 64.8595V60.65C64.2066 56.3636 64.2083 52.0164 64.1551 47.741C64.1509 47.4071 64.1426 47.0665 64.1279 46.721L65.027 46.3918L64.1109 46.4408C64.0962 46.1674 64.0835 45.9271 64.0624 45.6834L64.0164 45.2832C63.9841 44.9748 63.9668 44.8071 63.943 44.6379L63.8615 44.184C63.8098 43.8783 63.7859 43.7348 63.7547 43.5911L63.6333 43.124C63.558 42.8211 63.5254 42.6875 63.4846 42.5552L63.3171 42.0864C63.2153 41.7915 63.1714 41.6624 63.1186 41.5347C63.0806 41.4429 63.0351 41.3512 62.9901 41.2613L62.9001 41.0754C62.7672 40.7879 62.71 40.6618 62.6432 40.538C62.5944 40.4484 62.5375 40.3607 62.4812 40.2727L62.3689 40.0941L62.3138 40.0024L51.9529 40.0306L53.9598 42.4126L55.0616 44.5135C55.1137 44.6467 55.1607 44.7831 55.2075 44.9196L55.3313 45.2895C55.3721 45.424 55.4073 45.5619 55.4414 45.7001L55.5422 46.1038C55.5734 46.248 55.5972 46.3973 55.6227 46.5452L55.6906 46.9564C55.7143 47.1362 55.7288 47.3221 55.7429 47.5082L55.7521 47.6183H55.902L55.7724 48.8709V48.976L55.7438 49.8639H55.6231C54.6103 55.9914 51.6598 59.9704 46.6216 62.0146C46.272 62.1562 45.9124 62.2883 45.5429 62.4109C45.0181 62.585 44.4919 62.7272 43.9649 62.8513L43.6176 62.9234C43.0974 63.0289 42.7403 63.0971 42.3829 63.1505L41.8161 63.2239C41.4622 63.2667 41.1302 63.3008 40.7981 63.3261L40.207 63.3652C39.8695 63.3824 39.5336 63.3918 39.1978 63.396L38.8319 63.4069L38.327 63.3966C39.2201 63.701 40.1332 63.9434 41.0598 64.1221C46.4001 65.0064 51.8236 65.2812 57.226 64.9413H57.2258Z" fill="white"/>
<path d="M94.6406 223.032C94.5896 223.109 94.5452 223.196 94.498 223.279C94.4533 223.357 94.4034 223.429 94.3624 223.513H85.9231C84.759 223.461 83.6061 223.263 82.492 222.921L82.1633 222.837C71.624 220.286 65.136 211.497 65.2327 199.897C65.5012 167.511 65.4573 134.58 65.4149 102.734C65.3987 90.621 65.388 78.5079 65.3828 66.3947V66.182C65.3795 64.3982 65.379 62.6145 65.3812 60.8309C65.3828 56.5991 65.3847 52.2226 65.3316 47.919C65.4303 45.2048 64.8543 42.5085 63.6553 40.0716C63.4514 39.6975 63.2265 39.3352 62.9818 38.9864C62.8162 38.5626 62.6389 38.1534 62.4496 37.7589C62.3854 37.6244 62.3133 37.4997 62.2465 37.3683C62.1142 37.1081 61.9827 36.8468 61.8405 36.5989C61.7552 36.45 61.6623 36.3103 61.5733 36.1656C61.4399 35.9479 61.3076 35.7287 61.1665 35.5206C61.0665 35.3738 60.9603 35.234 60.8568 35.0911C60.7172 34.8986 60.5787 34.7058 60.4328 34.5204C60.3207 34.3786 60.2033 34.2441 60.0877 34.1072C59.9409 33.9337 59.7941 33.7595 59.6431 33.5935C59.5203 33.4594 59.3934 33.3309 59.2671 33.2014C59.1139 33.0439 58.9605 32.8865 58.8022 32.7357C58.6701 32.6095 58.5345 32.488 58.3985 32.3663C58.2385 32.2225 58.0778 32.0796 57.9134 31.9418C57.7732 31.8241 57.6304 31.71 57.4871 31.5964C57.3205 31.4645 57.1528 31.3342 56.9824 31.2078C56.8346 31.0977 56.6854 30.9903 56.5349 30.8854C56.3628 30.7647 56.1891 30.6462 56.0138 30.5298C55.8592 30.4277 55.7033 30.3273 55.5461 30.2286C55.3696 30.1185 55.1915 30.0101 55.0119 29.9034C54.8507 29.8078 54.689 29.7133 54.5255 29.6212C54.3453 29.5198 54.1635 29.4211 53.981 29.3236C53.8138 29.2345 53.6468 29.1455 53.478 29.0594C53.2956 28.9666 53.1111 28.8759 52.9276 28.7871C52.7538 28.7027 52.5804 28.6183 52.405 28.5368C52.2245 28.453 52.0426 28.3717 51.8604 28.2913C51.6782 28.211 51.4964 28.1286 51.3127 28.0502C51.1377 27.9756 50.9614 27.9035 50.7852 27.8314C50.5918 27.7519 50.3988 27.6717 50.2045 27.5947C50.0456 27.5319 49.886 27.4717 49.7274 27.4112C49.5128 27.3288 49.2984 27.246 49.083 27.1655L49.041 27.1488L49.4212 27.1295C50.4193 27.0789 51.4513 27.0264 52.4632 27.026C64.7199 27.0233 76.9734 27.0304 89.2238 27.0473C118.925 27.0752 149.638 27.1053 179.844 26.918H179.974C182.832 26.9353 185.658 27.5236 188.286 28.6482C190.914 29.7728 193.291 31.4111 195.277 33.4669C199.489 37.6612 201.87 43.3521 201.898 49.296C201.623 82.0611 201.691 115.377 201.755 147.596C201.779 159.745 201.798 171.893 201.811 184.041C201.272 184.05 200.733 184.06 200.194 184.072C198.93 184.097 197.622 184.124 196.337 184.124C166.86 184.134 137.382 184.14 107.905 184.143L96.1129 184.145C95.9426 184.136 95.7718 184.131 95.6011 184.126C95.2393 184.123 94.8779 184.1 94.5186 184.057C91.5341 183.523 88.4605 183.805 85.6234 184.875C82.7863 185.944 80.2912 187.761 78.4025 190.133C78.3245 190.234 78.248 190.335 78.172 190.439C77.7688 190.989 77.3986 191.562 77.0636 192.156C76.7206 192.75 76.4116 193.362 76.1381 193.991C74.5261 197.533 74.1498 201.514 75.0695 205.295C75.9892 209.076 78.1516 212.439 81.2103 214.845L81.7402 215.341L81.7907 215.388L81.7923 215.39L81.74 215.341L83.0697 215.72L82.1043 215.702C84.0172 217.519 86.5027 218.614 89.1346 218.8C89.8196 218.875 90.5089 218.932 91.2001 218.976C91.4489 218.992 91.6983 218.999 91.9474 219.011C92.3915 219.034 92.8353 219.059 93.2795 219.073L93.363 219.075C94.7184 219.117 96.071 219.126 97.4011 219.134C97.5246 219.134 97.6479 219.137 97.7714 219.138C98.6719 219.144 99.5719 219.153 100.471 219.171L100.467 219.176C100.31 219.344 100.139 219.498 99.9567 219.637C99.926 219.661 99.8965 219.686 99.8649 219.709C99.6868 219.84 99.5014 219.96 99.3097 220.07L99.1903 220.138C98.9954 220.246 98.7951 220.349 98.5894 220.446L98.4609 220.506C98.2611 220.597 98.0589 220.689 97.8532 220.781L97.8261 220.793C97.5875 220.899 97.349 221.007 97.1105 221.118C97.0105 221.166 96.9101 221.212 96.8112 221.261C96.7474 221.293 96.6855 221.329 96.6222 221.362C96.52 221.415 96.4173 221.468 96.3175 221.526C96.2509 221.564 96.1876 221.608 96.1222 221.648C96.029 221.706 95.9347 221.762 95.8446 221.825C95.7793 221.87 95.7182 221.922 95.6547 221.97C95.5694 222.035 95.483 222.098 95.4015 222.169C95.3391 222.223 95.2819 222.284 95.2221 222.342C95.1459 222.416 95.0685 222.488 94.9969 222.568C94.9391 222.633 94.8868 222.706 94.8318 222.776C94.7685 222.859 94.7013 222.941 94.6406 223.032Z" fill="white"/>
<path d="M94.3633 224.429H85.924C84.6823 224.38 83.4521 224.171 82.2637 223.808L81.9347 223.723C70.9726 221.071 64.2164 211.936 64.3164 199.889C64.5845 167.524 64.5408 134.613 64.4984 102.786C64.4821 90.6211 64.4714 78.4903 64.4663 66.394L64.4645 60.83C64.4661 56.5462 64.4678 52.2019 64.4149 47.9296C64.5134 45.3661 63.9764 42.8179 62.8518 40.5121C62.6639 40.1674 62.4567 39.8336 62.2313 39.5123L62.1282 39.3196C61.9707 38.9171 61.8022 38.5284 61.6225 38.1536L61.4295 37.7831C61.2851 37.4991 61.1696 37.2712 61.0454 37.0545L60.7922 36.6446C60.6308 36.3811 60.5225 36.2043 60.4078 36.0344L60.0671 35.563C59.9509 35.4026 59.8354 35.2423 59.7139 35.0889L59.477 34.8026C59.231 34.5118 59.1014 34.3581 58.9669 34.2109L58.6759 33.9063C58.4655 33.6902 58.3201 33.541 58.1701 33.3979L57.7983 33.0572C57.6348 32.9104 57.482 32.7742 57.3257 32.6432L56.9194 32.3142C56.7602 32.1882 56.6 32.0636 56.4374 31.9429L53.0631 29.8752L48.7645 28.0235L44.5811 26.4728L49.3759 26.2117C51.596 26.0989 53.8855 26.1068 56.1363 26.1068C67.1674 26.1068 78.1955 26.114 89.2208 26.1284H89.8298C119.334 26.1561 149.841 26.1846 179.84 26C182.842 26.0033 185.812 26.6085 188.576 27.7801C191.34 28.9516 193.841 30.6655 195.931 32.8205C200.314 37.1888 202.79 43.1145 202.817 49.3026C202.543 82.0418 202.61 115.335 202.674 147.531C202.698 159.742 202.723 171.891 202.73 184.04V184.943L200.22 184.988C198.91 185.014 197.613 185.04 196.339 185.041L96.114 185.061L95.6044 185.043C95.1996 185.039 94.7954 185.013 94.3934 184.965C91.5688 184.454 88.6587 184.717 85.9713 185.726C83.2839 186.735 80.9194 188.451 79.1281 190.694L78.9105 190.983C78.5289 191.503 78.1787 192.046 77.8617 192.608C77.5358 193.172 77.2422 193.753 76.9823 194.35C75.4523 197.711 75.0951 201.488 75.968 205.076C76.8409 208.664 78.8933 211.855 81.7962 214.137L82.2046 214.517L90.1006 216.769L84.9827 216.672C86.3131 217.335 87.7548 217.747 89.235 217.885C89.9063 217.959 90.5817 218.014 91.2592 218.058L92.2683 218.106C92.6151 218.125 92.9619 218.143 93.3089 218.153C94.7391 218.197 96.0842 218.206 97.407 218.214L97.6015 218.216C98.6822 218.224 99.5864 218.233 100.49 218.251L102.529 218.292L101.141 219.796C100.95 220 100.742 220.188 100.52 220.359C100.281 220.543 100.03 220.711 99.7695 220.862C99.424 221.055 99.2068 221.166 98.9829 221.272L97.2231 222.079L96.6239 221.359L97.0505 222.171L96.7771 222.317L96.1239 221.645L96.6068 222.425L96.3694 222.575L95.6564 221.967L96.2114 222.697L96.0042 222.859L95.2237 222.339L95.8617 222.998L95.6835 223.175L94.8344 222.773L95.5565 223.339L94.9611 224.278L94.3633 224.429ZM63.797 38.5494C64.0371 38.8985 64.259 39.2598 64.4617 39.6319C65.7369 42.1986 66.3515 45.0429 66.2498 47.9071C66.3024 52.1872 66.301 56.5396 66.2993 60.7509L66.3013 66.3931C66.3013 78.5078 66.312 90.621 66.3332 102.733C66.3756 134.616 66.4193 167.532 66.1511 199.905C66.0593 211.055 72.2772 219.501 82.38 221.945L82.7226 222.033C83.7623 222.353 84.8377 222.542 85.924 222.596H93.8322L93.8764 222.526C93.941 222.428 94.0107 222.338 94.0812 222.249C94.2056 222.087 94.2584 222.019 94.3144 221.956C94.3888 221.873 94.4677 221.796 94.5472 221.719L94.8022 221.475C94.885 221.403 94.9714 221.337 95.0591 221.271L96.6652 220.314C96.8773 220.215 97.0617 220.131 97.2376 220.051C95.8542 220.041 94.5955 220.03 93.3362 219.991C92.8924 219.978 92.5331 219.959 92.1738 219.941L91.143 219.891C90.4379 219.846 89.7348 219.788 89.0361 219.711C86.1958 219.505 83.5158 218.317 81.4564 216.35L80.5714 215.504C79.9454 214.986 79.3502 214.432 78.7887 213.844L78.3746 213.459L78.448 213.48C76.0248 210.85 74.4328 207.563 73.8718 204.031C73.3109 200.5 73.8061 196.881 75.2952 193.63C75.5826 192.97 75.9073 192.327 76.2676 191.704C76.6204 191.078 77.0104 190.474 77.4357 189.895L77.6788 189.573C79.6647 187.071 82.2905 185.153 85.2778 184.023C88.2651 182.892 91.5026 182.591 94.6472 183.151C94.9696 183.189 95.2939 183.209 95.6186 183.211L96.1615 183.229L196.338 183.206C197.6 183.206 198.884 183.18 200.127 183.155L200.893 183.14C200.886 171.293 200.867 159.445 200.838 147.597C200.774 115.334 200.707 82.0362 200.982 49.2867C200.951 43.587 198.666 38.1309 194.626 34.1105C192.725 32.1417 190.449 30.5723 187.933 29.4945C185.418 28.4167 182.712 27.8521 179.975 27.8339C149.847 28.0194 119.335 27.991 89.8282 27.9633H89.224C77.2442 27.951 65.2667 27.9439 53.2914 27.9418L56.5207 29.7629C56.7035 29.8834 56.8844 30.0068 57.0635 30.1332L57.5301 30.4693C57.7084 30.6016 57.8838 30.7377 58.0579 30.8757L58.5042 31.2372C58.6765 31.3816 58.8451 31.5308 59.013 31.6821L59.4363 32.0702C59.6027 32.2289 59.7642 32.3942 59.9253 32.5599L60.3207 32.9728C60.4717 33.1379 60.617 33.3098 60.7623 33.4819L61.1531 33.9498C61.2904 34.1236 61.4221 34.305 61.5535 34.4867L60.9535 35.2206L61.692 34.6764L61.9269 35.0045C62.0572 35.1969 62.1806 35.398 62.3039 35.5993L61.6693 36.3162L62.4449 35.8263L62.6372 36.1412C62.7764 36.3843 62.9065 36.6391 63.0362 36.8934L62.3298 37.5228L63.1386 37.0896L63.2784 37.3615C63.4614 37.7451 63.6343 38.1411 63.797 38.5494Z" fill="white"/>
<path d="M99.0546 205.297C99.1488 204.632 99.2043 203.963 99.2208 203.292C99.3543 202.284 99.2619 201.26 98.9505 200.293C98.639 199.325 98.1163 198.44 97.4201 197.699C97.2775 197.498 97.1342 197.292 96.9933 197.086C96.9542 197.029 96.9177 196.97 96.8792 196.913C96.777 196.759 96.6759 196.606 96.5796 196.45C96.5317 196.373 96.4878 196.293 96.4429 196.215C96.3616 196.076 96.2821 195.936 96.2089 195.795C96.1634 195.706 96.1236 195.615 96.0818 195.526C96.0399 195.436 96.0036 195.346 95.9667 195.256L96.0284 195.255L106.327 195.086C106.445 195.282 106.545 195.483 106.654 195.682C106.805 195.953 106.964 196.223 107.098 196.5C107.21 196.731 107.299 196.967 107.399 197.201C107.513 197.465 107.636 197.726 107.735 197.993C107.832 198.256 107.906 198.524 107.989 198.789C108.066 199.033 108.155 199.274 108.219 199.52C108.301 199.832 108.358 200.147 108.422 200.462C108.464 200.665 108.518 200.865 108.551 201.07C108.616 201.467 108.655 201.867 108.691 202.267C108.703 202.39 108.725 202.512 108.733 202.635C108.859 205.119 108.493 207.602 107.655 209.943C106.817 212.284 105.524 214.436 103.85 216.275C103.701 216.446 103.535 216.607 103.379 216.775C103.137 217.035 102.9 217.298 102.643 217.551C102.219 217.964 101.776 218.365 101.311 218.755C100.162 218.728 99.0109 218.721 97.8594 218.714C96.5256 218.706 95.1693 218.697 93.8115 218.656L93.7084 218.654C93.3765 218.643 93.0453 218.623 92.7134 218.608C91.6537 218.56 90.5954 218.496 89.5497 218.382C89.227 218.347 88.9121 218.303 88.6037 218.25C88.5026 218.233 88.4061 218.21 88.3064 218.191C88.102 218.152 87.8978 218.112 87.7 218.065C87.5859 218.038 87.4764 218.005 87.3644 217.976C87.1876 217.928 87.0107 217.881 86.8393 217.828C86.7243 217.791 86.6133 217.751 86.5006 217.712C86.3395 217.657 86.1791 217.6 86.0235 217.538C85.9113 217.494 85.8023 217.446 85.6933 217.398C85.5439 217.333 85.3958 217.267 85.2516 217.196C85.1448 217.144 85.0404 217.089 84.9364 217.033C84.7966 216.958 84.6586 216.882 84.5237 216.801C84.4234 216.742 84.3246 216.681 84.2272 216.618C84.0959 216.533 83.9674 216.445 83.8419 216.355C83.7487 216.288 83.6562 216.221 83.5667 216.151C83.4816 216.085 83.4001 216.015 83.3175 215.947L83.0713 215.719C83.5342 215.712 83.9972 215.711 84.4597 215.711C86.9719 215.87 89.4907 215.53 91.8706 214.71C92.5208 214.443 93.1481 214.123 93.7464 213.754C95.2179 212.843 96.4613 211.607 97.3813 210.141C98.3014 208.675 98.8738 207.018 99.0546 205.297Z" fill="#868E96"/>
<path d="M101.636 219.68L101.29 219.672C100.17 219.646 99.0474 219.639 97.9247 219.632C96.5135 219.623 95.1498 219.614 93.7845 219.573L92.6732 219.524C91.5939 219.476 90.5163 219.41 89.4517 219.295C89.1101 219.258 88.7769 219.21 88.4505 219.155L88.2367 219.113C87.9165 219.05 87.6989 219.008 87.4881 218.958L87.2343 218.891C86.9349 218.81 86.7476 218.76 86.5659 218.703L86.2867 218.609C86.0274 218.519 85.8542 218.458 85.6859 218.391L85.374 218.26C85.165 218.169 85.0043 218.097 84.8476 218.02L84.5045 217.843C84.3516 217.761 84.2012 217.678 84.0538 217.59L83.7294 217.388C83.5857 217.295 83.445 217.199 83.3074 217.1L82.4467 216.391L80.7656 214.834L83.0566 214.8C83.5238 214.794 83.9911 214.793 84.4579 214.793C86.8509 214.946 89.2508 214.629 91.522 213.86C92.1261 213.612 92.709 213.315 93.2651 212.972C94.6233 212.133 95.7701 210.993 96.6167 209.639C97.4634 208.286 97.9871 206.756 98.1474 205.167V205.166C98.2367 204.537 98.2892 203.902 98.3048 203.267C98.4263 202.358 98.3427 201.434 98.0601 200.562C97.7775 199.69 97.3031 198.892 96.6718 198.227L96.1177 197.422C96.0093 197.26 95.9023 197.098 95.8003 196.932L95.6953 196.754C95.5625 196.525 95.4752 196.371 95.3946 196.215L94.6172 194.38L95.9528 194.339L106.84 194.16L107.113 194.611C107.199 194.753 107.276 194.898 107.353 195.043L107.571 195.44C107.694 195.658 107.816 195.877 107.924 196.1C108.007 196.272 108.08 196.446 108.152 196.62L108.34 197.06C108.43 197.265 108.52 197.469 108.597 197.676C108.672 197.88 108.735 198.085 108.797 198.291L108.94 198.744C109 198.924 109.059 199.104 109.107 199.286C109.177 199.551 109.23 199.817 109.283 200.083L109.369 200.492C109.402 200.635 109.434 200.778 109.458 200.922C109.527 201.342 109.568 201.764 109.607 202.186L109.65 202.574C109.787 205.178 109.406 207.783 108.529 210.238C107.652 212.694 106.298 214.952 104.543 216.88C104.44 216.997 104.332 217.11 104.223 217.223L103.911 217.553C103.707 217.773 103.503 217.993 103.286 218.207C102.845 218.638 102.383 219.055 101.901 219.46L101.636 219.68ZM86.194 216.614L86.3621 216.686C86.5054 216.742 86.6533 216.794 86.8015 216.845L87.1134 216.952C87.2703 217.001 87.4323 217.044 87.5943 217.087L87.9127 217.173C88.0975 217.217 88.2885 217.253 88.4793 217.29L88.6037 218.25L88.7578 217.346C89.0483 217.395 89.345 217.437 89.6486 217.47C90.6752 217.582 91.7143 217.645 92.7546 217.69L93.7372 217.736C95.1897 217.779 96.5384 217.788 97.8656 217.796C98.9452 217.803 99.9681 217.809 100.984 217.829C101.336 217.525 101.676 217.213 102.002 216.894C102.197 216.703 102.379 216.505 102.562 216.306L102.903 215.944C102.991 215.853 103.079 215.763 103.16 215.669C104.755 213.922 105.988 211.876 106.788 209.649C107.587 207.422 107.937 205.059 107.818 202.697L107.778 202.349C107.743 201.971 107.707 201.592 107.645 201.217C107.627 201.11 107.603 201.004 107.579 200.897L107.482 200.437C107.436 200.208 107.392 199.979 107.332 199.753C107.293 199.606 107.245 199.462 107.197 199.317L107.039 198.819C106.988 198.649 106.937 198.478 106.874 198.31C106.81 198.138 106.734 197.969 106.659 197.799L106.453 197.318C106.395 197.177 106.338 197.036 106.271 196.898C106.179 196.709 106.074 196.523 105.97 196.338L105.789 196.011L97.4755 196.149C97.5305 196.234 97.5856 196.318 97.6427 196.403L96.9942 197.086L97.752 196.569L98.1711 197.171C98.9453 198.011 99.522 199.014 99.8591 200.106C100.196 201.197 100.285 202.35 100.12 203.481C100.111 204.132 100.059 204.782 99.9635 205.427C99.7592 207.281 99.1366 209.063 98.1427 210.641C97.1488 212.219 95.8096 213.551 94.226 214.535C93.5853 214.93 92.9136 215.272 92.2176 215.558C90.2934 216.284 88.2502 216.642 86.194 216.614ZM96.8528 196.159L96.5799 196.45L97.0557 196.156L96.8528 196.159Z" fill="white"/>
<path d="M98.8372 203.07L95.8982 203.06C92.998 203.051 90.0981 203.037 87.1985 203.02L86.9401 203.019C85.5355 203.015 84.2088 203.011 83.7385 201.371C83.5472 200.681 83.5522 199.952 83.753 199.265C83.9538 198.579 84.3424 197.961 84.875 197.484C85.0899 197.255 85.3088 197.048 85.5299 196.852C85.5992 196.791 85.6695 196.734 85.7394 196.675C85.8976 196.544 86.0573 196.419 86.2187 196.302C86.2954 196.247 86.3717 196.191 86.4491 196.139C86.6306 196.017 86.8142 195.905 86.9996 195.801C87.0509 195.772 87.1012 195.739 87.153 195.711C87.3825 195.589 87.6161 195.482 87.8524 195.385C87.9386 195.35 88.0267 195.32 88.114 195.288C88.2731 195.229 88.4333 195.175 88.5955 195.126C88.6975 195.096 88.8003 195.067 88.9038 195.04C89.0639 194.999 89.2261 194.964 89.3894 194.932C89.4863 194.914 89.5819 194.891 89.6797 194.875C89.923 194.836 90.1697 194.805 90.4197 194.783C90.5254 194.774 90.6335 194.771 90.7402 194.765C90.9054 194.756 91.0727 194.748 91.2415 194.747C91.358 194.745 91.4758 194.747 91.5938 194.748C91.785 194.75 91.9783 194.757 92.1736 194.768C92.2685 194.774 92.3624 194.777 92.4582 194.784C92.7542 194.805 93.0538 194.834 93.3589 194.872L93.4593 194.885C93.7684 194.925 94.082 194.972 94.4002 195.025L94.4505 195.034C94.7958 195.093 95.1466 195.159 95.5028 195.232C95.5517 195.364 95.6154 195.489 95.6728 195.616C95.7169 195.714 95.7549 195.814 95.8031 195.91C95.8794 196.062 95.9653 196.209 96.0503 196.356C96.0987 196.44 96.142 196.527 96.1932 196.61C96.2927 196.772 96.3982 196.931 96.5037 197.09C96.5464 197.154 96.5866 197.22 96.6301 197.284C96.7794 197.504 96.9317 197.721 97.0829 197.936C97.2222 198.134 97.3603 198.33 97.495 198.526C97.5244 198.569 97.5501 198.613 97.58 198.655C97.6853 198.811 97.7901 198.967 97.8886 199.124C97.9148 199.166 97.9374 199.209 97.9633 199.251C98.0607 199.411 98.1569 199.571 98.2438 199.734C98.2622 199.769 98.2776 199.806 98.2959 199.842C98.3842 200.013 98.4688 200.186 98.5416 200.363C98.555 200.395 98.5642 200.43 98.577 200.462C98.6492 200.643 98.7114 200.828 98.7633 201.016C98.7737 201.055 98.7787 201.095 98.7882 201.134C98.8347 201.32 98.8696 201.508 98.8928 201.698C98.8994 201.757 98.8983 201.82 98.9027 201.88C98.9174 202.056 98.922 202.233 98.9163 202.41C98.9115 202.517 98.8941 202.63 98.8814 202.74C98.8706 202.85 98.8567 202.958 98.8372 203.07Z" fill="white"/>
<path d="M99.6081 203.992L95.8949 203.979C92.9937 203.97 90.0926 203.957 87.1917 203.939L86.9358 203.938C85.4936 203.934 83.5167 203.928 82.8566 201.626C82.6208 200.784 82.6221 199.894 82.8602 199.052C83.0983 198.211 83.564 197.452 84.2061 196.858C84.4408 196.608 84.6795 196.382 84.9217 196.168L85.0998 196.017C85.327 195.828 85.5035 195.69 85.682 195.561L85.9389 195.38C86.1407 195.244 86.3455 195.119 86.5527 195.003L86.7244 194.904C86.9787 194.769 87.2396 194.647 87.506 194.539L87.7262 194.456C87.9763 194.364 88.155 194.303 88.3358 194.249L88.6787 194.154C88.8554 194.108 89.035 194.07 89.2158 194.034L89.5356 193.972C89.8016 193.929 90.0713 193.896 90.3445 193.872L90.5945 193.857C90.8708 193.842 91.0504 193.834 91.2326 193.832L91.6093 193.833C91.8135 193.836 92.0194 193.843 92.2271 193.855L92.5271 193.871C92.839 193.894 93.1539 193.924 93.4742 193.963C93.9001 194.018 94.2252 194.066 94.5568 194.122C94.9638 194.192 95.3241 194.26 95.6907 194.336L96.1876 194.438L96.5681 195.369C96.687 195.621 96.7553 195.739 96.8232 195.856L96.9149 196.02C97.0718 196.285 97.1703 196.433 97.2689 196.582L96.6329 197.286L97.3916 196.771L98.254 198.01C98.4536 198.308 98.5639 198.473 98.6679 198.639C98.8553 198.951 98.9602 199.126 99.0554 199.305C99.2142 199.619 99.3097 199.816 99.3923 200.017C99.4919 200.267 99.5785 200.522 99.6516 200.781C99.7191 201.049 99.7707 201.322 99.8063 201.596L99.8196 201.816C99.8371 202.027 99.8421 202.239 99.8349 202.451C99.8303 202.557 99.818 202.663 99.8048 202.769C99.7817 202.971 99.7657 203.099 99.7428 203.23L99.6081 203.992ZM98.8397 202.41V202.432L98.9167 202.413L98.8397 202.41ZM85.5297 196.854L86.1385 197.54C85.9378 197.718 85.7387 197.906 85.5437 198.113C85.1228 198.477 84.8129 198.952 84.6496 199.484C84.4863 200.016 84.4761 200.583 84.6202 201.12C84.8676 201.982 85.311 202.098 86.9422 202.103L87.2028 202.104C90.1036 202.125 93.003 202.139 95.901 202.144L97.9999 202.152C97.9975 202.084 97.9932 202.018 97.9883 201.952C97.9754 201.75 97.9447 201.55 97.8966 201.353C97.8523 201.164 97.794 200.979 97.7223 200.799C97.6519 200.616 97.571 200.438 97.4801 200.264C97.3555 200.021 97.2681 199.876 97.1799 199.732L95.7375 197.598C95.6261 197.43 95.5151 197.263 95.4102 197.091L95.3028 196.903C95.1448 196.626 95.0599 196.478 94.9834 196.325L94.8751 196.087L94.9162 196.055C94.7072 196.015 94.5003 195.977 94.2957 195.942C93.9406 195.882 93.6395 195.837 93.3416 195.799C92.9563 195.75 92.6711 195.723 92.39 195.702L92.1231 195.688C91.9396 195.678 91.7584 195.672 91.5796 195.67L91.2533 195.669C91.097 195.671 90.9434 195.678 90.7906 195.687L90.497 195.703C90.2702 195.722 90.0466 195.75 89.826 195.786L89.5649 195.838C89.4194 195.866 89.2745 195.897 89.1313 195.934L88.8561 196.011C88.7134 196.053 88.5715 196.102 88.4306 196.154L87.8514 195.39L88.2 196.239C87.9917 196.325 87.7857 196.419 87.5833 196.527C87.2833 196.699 87.1205 196.798 86.9594 196.906L86.7807 197.032C86.6099 197.155 86.4672 197.267 86.3257 197.385L85.5297 196.854ZM95.4292 195.594L95.4146 195.665L95.6208 195.504L95.4292 195.594Z" fill="white"/>
<path d="M95.6774 194.848C91.8102 194.043 87.7919 193.776 84.575 197.202C83.9906 197.73 83.5655 198.411 83.3477 199.168C83.1299 199.925 83.1281 200.727 83.3426 201.485C83.8983 203.423 85.5141 203.428 86.9388 203.432L87.1957 203.433C90.0177 203.454 92.8397 203.467 95.6617 203.473L98.7992 203.484C98.7943 203.616 98.786 203.746 98.7781 203.876C98.7684 204.038 98.7598 204.201 98.7466 204.359C98.7321 204.522 98.7115 204.681 98.6925 204.841C98.6741 204.996 98.6578 205.153 98.635 205.304C98.6117 205.461 98.582 205.613 98.5539 205.767C98.527 205.915 98.5022 206.065 98.471 206.211C98.4385 206.362 98.3996 206.508 98.3626 206.656C98.3271 206.798 98.2941 206.941 98.2545 207.08C98.213 207.225 98.1648 207.365 98.1187 207.507C98.075 207.642 98.0339 207.778 97.986 207.91C97.9356 208.049 97.8783 208.183 97.8233 208.318C97.7714 208.447 97.722 208.577 97.666 208.701C97.6068 208.834 97.5407 208.96 97.4771 209.088C97.4167 209.21 97.3591 209.335 97.2947 209.453C97.2266 209.578 97.1517 209.698 97.0795 209.82C97.0108 209.936 96.9451 210.053 96.8727 210.165C96.7956 210.284 96.7114 210.397 96.6299 210.512C96.5536 210.62 96.4804 210.73 96.4002 210.835C96.3138 210.948 96.22 211.055 96.1292 211.163C96.0455 211.264 95.9652 211.367 95.8778 211.464C95.7815 211.57 95.6778 211.671 95.5771 211.773C95.4866 211.865 95.3998 211.961 95.3057 212.05C95.1997 212.15 95.0855 212.244 94.9754 212.34C94.8784 212.424 94.785 212.512 94.6843 212.594C94.5666 212.689 94.4411 212.777 94.3188 212.867C94.2171 212.942 94.1193 213.021 94.0144 213.093C93.8791 213.187 93.7358 213.272 93.5951 213.36C93.4949 213.423 93.3988 213.489 93.2958 213.55C93.1397 213.641 92.9749 213.724 92.8124 213.81C92.7169 213.86 92.6259 213.914 92.5283 213.962C92.2648 214.091 91.9935 214.214 91.7144 214.329C89.3834 215.126 86.918 215.456 84.4594 215.299C83.8514 215.299 83.2428 215.3 82.6345 215.315L82.4013 215.099L82.6363 215.317L81.7908 214.533L81.7817 214.524C78.7676 212.187 76.6322 208.9 75.7225 205.196C74.8127 201.492 75.1819 197.589 76.7702 194.121C76.9516 193.701 77.1489 193.295 77.3573 192.898C77.4247 192.77 77.4993 192.648 77.5694 192.522C77.7162 192.259 77.8643 191.998 78.0223 191.746C78.1116 191.604 78.2069 191.468 78.2999 191.329C78.4507 191.104 78.6039 190.881 78.7641 190.666C78.8672 190.528 78.9736 190.393 79.0804 190.259C79.2437 190.054 79.4111 189.853 79.5826 189.657C79.6942 189.53 79.8073 189.404 79.9221 189.281C80.1033 189.088 80.2901 188.901 80.4797 188.718C80.5947 188.608 80.7088 188.494 80.8268 188.387C81.0365 188.197 81.2532 188.016 81.4723 187.838C81.5789 187.751 81.6826 187.661 81.7914 187.577C82.0712 187.362 82.3602 187.159 82.6538 186.963C82.7088 186.926 82.7602 186.886 82.8154 186.85C83.1732 186.618 83.5405 186.4 83.9174 186.199C83.9818 186.164 84.0493 186.135 84.1143 186.101C84.4231 185.941 84.7363 185.787 85.0569 185.647C85.1787 185.593 85.3042 185.547 85.4277 185.496C85.6985 185.386 85.9712 185.278 86.2495 185.182C86.3928 185.132 86.5387 185.087 86.6838 185.041C86.9504 184.957 87.2194 184.878 87.4922 184.806C87.6467 184.766 87.8023 184.728 87.9587 184.692C88.232 184.628 88.5083 184.572 88.7874 184.522C88.9454 184.493 89.1036 184.464 89.2634 184.44C89.5537 184.396 89.8478 184.362 90.1441 184.331C90.2966 184.316 90.4478 184.297 90.6017 184.285C90.932 184.259 91.2665 184.247 91.6026 184.239C91.7256 184.236 91.8467 184.227 91.9705 184.227C92.3111 184.225 92.6568 184.241 93.0028 184.257C93.1415 184.263 93.278 184.262 93.4171 184.272C93.9026 184.304 94.3927 184.354 94.8876 184.422C95.2651 184.468 95.6449 184.492 96.0252 184.496C96.1387 184.499 96.256 184.503 96.3725 184.508C96.383 184.573 96.4048 184.627 96.4193 184.689C96.4367 184.762 96.4525 184.838 96.4754 184.906C96.5037 184.987 96.5366 185.066 96.574 185.144C96.6026 185.205 96.629 185.269 96.6618 185.326C96.704 185.395 96.75 185.463 96.7996 185.527C96.8363 185.578 96.8714 185.631 96.9119 185.678C96.9657 185.74 97.0251 185.796 97.0842 185.853C97.1272 185.894 97.1679 185.938 97.2127 185.976C97.2772 186.031 97.3462 186.079 97.4145 186.128C97.4605 186.162 97.5044 186.197 97.5519 186.228C97.627 186.277 97.7051 186.322 97.7831 186.366C97.8284 186.392 97.8719 186.42 97.918 186.445C98.0053 186.492 98.0939 186.535 98.1827 186.579C98.2213 186.597 98.2591 186.618 98.2976 186.636C98.4237 186.696 98.5497 186.753 98.6737 186.81L98.9216 186.923C99.3539 187.123 99.7693 187.339 100.168 187.571C100.296 187.644 100.412 187.73 100.536 187.808C100.801 187.973 101.067 188.134 101.316 188.313C101.447 188.407 101.566 188.513 101.692 188.611C101.922 188.788 102.153 188.963 102.369 189.154C102.489 189.259 102.597 189.376 102.712 189.486C102.92 189.684 103.131 189.881 103.327 190.093C103.433 190.209 103.53 190.336 103.633 190.457C103.822 190.677 104.012 190.897 104.188 191.132C104.288 191.265 104.378 191.41 104.474 191.549C104.637 191.783 104.801 192.017 104.951 192.265C105.054 192.435 105.147 192.616 105.245 192.792C105.372 193.021 105.501 193.248 105.618 193.487C105.736 193.727 105.84 193.976 105.947 194.224C106.013 194.374 106.079 194.522 106.141 194.676L95.6774 194.848Z" fill="#868E96"/>
<path d="M82.2831 216.24L82.0113 215.988L81.1673 215.205C78.0048 212.744 75.7666 209.286 74.8156 205.393C73.8645 201.5 74.2565 197.4 75.9279 193.758C76.1187 193.316 76.3261 192.888 76.5448 192.472L76.693 192.206C76.9222 191.799 77.0784 191.524 77.2451 191.259L77.4653 190.924C77.6963 190.58 77.8582 190.345 78.0273 190.118L78.3613 189.688C78.5341 189.471 78.7111 189.259 78.8923 189.052L79.2515 188.654C79.4433 188.449 79.6407 188.252 79.8414 188.058L80.2084 187.708C80.4304 187.506 80.66 187.315 80.8919 187.126L81.23 186.851C81.5264 186.623 81.8317 186.408 82.1425 186.2L82.3139 186.081C82.6931 185.835 83.082 185.606 83.4807 185.391L83.6887 185.288C84.0153 185.118 84.3467 184.956 84.686 184.807L84.9529 184.697C85.3639 184.53 85.6522 184.417 85.9461 184.315L86.3203 184.193C86.6859 184.078 86.9696 183.994 87.2573 183.918L87.7489 183.797C88.0369 183.731 88.3279 183.671 88.6217 183.618L89.1226 183.533C89.4276 183.486 89.7367 183.45 90.0474 183.418L90.5277 183.37C90.874 183.343 91.225 183.33 91.5773 183.321L91.9626 183.309C92.3187 183.307 92.6804 183.323 93.0424 183.34L93.4756 183.356C93.9821 183.39 94.4936 183.443 95.0101 183.513C95.3511 183.554 95.6941 183.575 96.0376 183.577L97.0915 183.615L97.5306 184.977L97.9289 185.37L99.3019 186.089C99.7632 186.303 100.203 186.532 100.626 186.777C100.717 186.83 100.804 186.887 100.89 186.945L100.617 187.859L101.1 187.079C101.355 187.237 101.609 187.396 101.85 187.568C101.944 187.636 102.033 187.708 102.123 187.781L101.69 188.611L102.348 187.959C102.562 188.125 102.774 188.29 102.975 188.466C103.062 188.543 103.144 188.624 103.226 188.706L102.71 189.486L103.417 188.892C103.615 189.08 103.813 189.27 103.999 189.472C104.077 189.556 104.151 189.646 104.224 189.735L103.677 190.511L104.375 189.914C104.561 190.132 104.747 190.35 104.921 190.582C104.994 190.68 105.063 190.782 105.132 190.885L104.473 191.548L105.267 191.084C105.427 191.315 105.586 191.545 105.735 191.789C105.814 191.919 105.887 192.055 105.961 192.191L105.243 192.792L106.099 192.443C106.216 192.653 106.332 192.863 106.441 193.083C106.549 193.304 106.649 193.536 106.748 193.767L106.132 194.234V194.278L106.835 193.97L107.487 195.572L95.5889 195.768L95.4889 195.747C91.327 194.881 87.9916 194.903 85.2425 197.831C84.7692 198.244 84.4223 198.783 84.2419 199.385C84.0615 199.987 84.0549 200.628 84.2229 201.233C84.5542 202.389 85.3054 202.511 86.9408 202.515L87.1988 202.517C90.0219 202.537 92.8434 202.55 95.6634 202.556L99.7507 202.571L99.6142 204.85L98.6784 204.954L99.5898 205.059L99.4744 205.83L98.5328 205.88L99.4361 206.041L99.2768 206.78L98.334 206.769L99.225 206.987L99.0232 207.691L98.0818 207.62L98.9561 207.898L98.7128 208.566L97.779 208.427L98.6313 208.767L98.346 209.401L97.4245 209.195L98.2502 209.596L97.9236 210.196L97.0168 209.923L97.8089 210.386L97.4407 210.952L96.5581 210.613L97.312 211.135L96.9038 211.666L96.0488 211.259L96.7592 211.839L96.3108 212.335L95.4878 211.864L96.1506 212.499L95.6655 212.955L94.8765 212.426L95.4871 213.111L95.2596 213.307C95.1627 213.385 95.0612 213.46 94.9598 213.533L94.2117 212.946L94.768 213.676L94.5332 213.849C94.4191 213.927 94.3 214.001 94.1807 214.075L93.4835 213.431L93.9833 214.2L93.7583 214.341C93.6205 214.422 93.477 214.497 93.3334 214.571L92.6987 213.87L93.142 214.673L92.9325 214.784C92.6511 214.923 92.3609 215.054 92.0618 215.176C89.0209 216.116 85.8301 216.473 82.6566 216.231L82.2831 216.24ZM82.65 186.962L83.1588 187.726C82.8825 187.909 82.6113 188.101 82.348 188.304L82.1724 188.447C81.8422 188.717 81.6378 188.887 81.4403 189.066L81.1814 189.312C80.9354 189.55 80.7594 189.726 80.5888 189.908L80.269 190.262C80.107 190.446 79.9492 190.636 79.7954 190.83L79.497 191.214C79.3457 191.417 79.2013 191.627 79.0587 191.84L78.7961 192.234C78.6466 192.473 78.5066 192.72 78.3679 192.968L78.1661 193.323C77.9686 193.7 77.7807 194.085 77.6092 194.484C76.1052 197.77 75.7562 201.467 76.6189 204.977C77.4816 208.486 79.5053 211.6 82.3614 213.814L82.9831 214.389C85.8091 214.61 88.6516 214.301 91.3642 213.478C91.6239 213.372 91.8762 213.258 92.1211 213.138L92.384 212.996C92.6011 212.883 92.7185 212.822 92.8308 212.757L95.95 209.882L97.3704 206.828L97.8175 204.398L95.6567 204.39C92.8338 204.38 90.0107 204.367 87.1872 204.35L86.9333 204.349C85.4494 204.345 83.2047 204.339 82.4588 201.738C82.2005 200.828 82.1988 199.863 82.4539 198.952C82.709 198.041 83.2109 197.218 83.9043 196.574C87.4136 192.837 91.8591 193.127 95.7618 193.929L104.737 193.781C104.659 193.629 104.577 193.482 104.494 193.334L104.345 193.063C104.286 192.954 104.228 192.845 104.165 192.741C104.037 192.53 103.897 192.33 103.759 192.13L103.451 191.681C103.301 191.482 103.14 191.295 102.98 191.107L102.65 190.714C102.491 190.542 102.322 190.382 102.154 190.222L101.76 189.84C101.591 189.69 101.41 189.552 101.228 189.412L100.78 189.058C100.573 188.91 100.353 188.774 100.133 188.638L99.7058 188.364C99.3307 188.147 98.9402 187.944 98.534 187.755L96.8768 186.873C96.7781 186.802 96.6963 186.742 96.6188 186.677L96.4763 186.544C96.3581 186.43 96.2831 186.357 96.2141 186.277L96.0798 186.102C96.0023 186 95.9303 185.893 95.8642 185.783L95.7554 185.565C95.728 185.506 95.7036 185.452 95.682 185.402C95.3729 185.394 95.0645 185.37 94.758 185.33C94.2851 185.264 93.8163 185.217 93.3519 185.186L92.9565 185.172C92.6262 185.157 92.2969 185.142 91.9719 185.143L91.6211 185.155C91.3017 185.163 90.9831 185.174 90.6692 185.199L90.3842 185.227C89.954 185.272 89.6749 185.304 89.3995 185.346L88.9709 185.419C88.6839 185.471 88.4221 185.524 88.1635 185.584L87.7223 185.693C87.4654 185.76 87.2102 185.835 86.9582 185.915L86.5478 186.047C86.2856 186.139 86.0283 186.24 85.7729 186.344L85.4232 186.486C85.121 186.618 84.8261 186.763 84.5351 186.914L83.9152 186.198L84.3495 187.005C83.9947 187.196 83.649 187.4 83.3122 187.618L82.65 186.962Z" fill="white"/>
<path d="M222.934 207.891C221.534 217.024 213.739 221.426 207.433 223.512H95.2598C95.2803 223.475 95.299 223.436 95.3205 223.4C95.3644 223.328 95.4102 223.258 95.4577 223.19C95.5129 223.112 95.5704 223.036 95.6302 222.963C95.6816 222.901 95.7337 222.839 95.7884 222.781C95.8521 222.713 95.9185 222.648 95.9864 222.585C96.0438 222.532 96.101 222.478 96.1612 222.428C96.2331 222.369 96.308 222.312 96.3836 222.257C96.4454 222.211 96.5064 222.165 96.5704 222.122C96.6509 222.068 96.7342 222.017 96.8177 221.967C96.8816 221.929 96.9443 221.889 97.0098 221.852C97.1016 221.801 97.1952 221.753 97.2891 221.704C97.3507 221.673 97.4107 221.64 97.4726 221.609C97.5838 221.554 97.6973 221.502 97.8113 221.45C97.859 221.428 97.9054 221.405 97.9535 221.383C98.1156 221.31 98.2791 221.238 98.4441 221.166C98.6504 221.075 98.8567 220.983 99.0632 220.889C99.8683 220.562 100.602 220.082 101.223 219.474C101.333 219.358 101.436 219.236 101.532 219.107C102.015 218.706 102.476 218.291 102.915 217.864L102.949 217.827C109.14 211.772 110.902 203.313 107.447 196.271C107.203 195.772 106.933 195.28 106.636 194.796C105.599 191.92 103.68 189.445 101.152 187.725C100.498 187.278 99.8094 186.885 99.0926 186.548L98.8423 186.434C98.7201 186.379 98.5988 186.323 98.4795 186.267L98.3999 186.227C98.3082 186.183 98.2186 186.139 98.1313 186.093C98.0917 186.072 98.0544 186.049 98.0157 186.027C97.9436 185.987 97.8717 185.946 97.8034 185.903C97.7616 185.876 97.723 185.847 97.683 185.819C97.6223 185.776 97.5619 185.734 97.5056 185.687C97.4656 185.655 97.4295 185.619 97.392 185.584C97.3414 185.537 97.2913 185.489 97.2452 185.437C97.2102 185.398 97.1792 185.355 97.1473 185.313C97.1056 185.259 97.067 185.202 97.0315 185.144C97.0034 185.097 96.9788 185.046 96.9544 184.996C96.9234 184.931 96.896 184.865 96.8724 184.798C96.853 184.742 96.8357 184.683 96.8214 184.623C96.8126 184.588 96.8073 184.549 96.8001 184.513L108.45 184.511C138.201 184.506 167.951 184.5 197.702 184.492C199.003 184.492 200.324 184.465 201.603 184.44C202.212 184.428 202.821 184.416 203.431 184.406C213.989 184.86 221.257 190.663 222.872 199.931C223.331 202.562 223.352 205.252 222.934 207.891V207.891Z" fill="#868E96"/>
<path d="M207.582 224.428H93.6934L94.4601 223.062C94.5358 222.924 94.6183 222.791 94.7075 222.662C94.7761 222.564 94.8477 222.469 94.9223 222.379C94.9862 222.301 95.0508 222.225 95.1188 222.153C95.1976 222.069 95.2792 221.989 95.3627 221.911L95.575 221.722C95.6612 221.65 95.7506 221.582 95.841 221.516L97.4291 220.615L98.6814 220.054C99.3766 219.775 100.012 219.365 100.553 218.847C100.641 218.755 100.723 218.657 100.799 218.556L100.946 218.401C101.41 218.015 101.853 217.617 102.275 217.206C108.208 211.401 109.901 203.355 106.624 196.674C106.391 196.199 106.135 195.732 105.854 195.274C105.246 193.55 104.301 191.964 103.074 190.608C101.847 189.253 100.362 188.156 98.7067 187.38L97.157 186.57C97.0781 186.515 96.999 186.458 96.9247 186.397L96.7674 186.256C96.6959 186.189 96.6254 186.12 96.5601 186.047L96.4287 185.884C96.3621 185.797 96.3003 185.707 96.2436 185.614L96.1275 185.392C96.0814 185.297 96.0408 185.199 96.0058 185.099L95.9315 184.846L95.7177 183.752L96.8003 183.595L197.703 183.574C198.98 183.574 200.278 183.548 201.535 183.523L203.417 183.488C214.492 183.963 222.082 190.05 223.777 199.772C224.253 202.502 224.275 205.291 223.842 208.028V208.028C222.371 217.624 214.264 222.218 207.722 224.381L207.582 224.428ZM97.5689 222.593H207.285C213.315 220.572 220.708 216.362 222.028 207.749C222.431 205.209 222.411 202.62 221.969 200.087C220.434 191.276 213.489 185.757 203.392 185.322L201.664 185.355C200.303 185.382 198.993 185.408 197.703 185.409L98.8615 185.428L99.4751 185.712C100.238 186.07 100.971 186.488 101.667 186.962C104.35 188.789 106.39 191.416 107.495 194.468C107.783 194.918 108.042 195.385 108.273 195.866C111.906 203.27 110.068 212.148 103.592 218.481C103.127 218.937 102.673 219.348 102.2 219.745C102.101 219.87 101.998 219.99 101.89 220.104C101.188 220.796 100.359 221.345 99.4474 221.72L97.8781 222.431L97.2909 221.702L97.71 222.518L97.5689 222.593ZM97.1968 222.593H97.4052L96.8181 221.966L97.1968 222.593ZM96.6324 222.593H96.7608L96.3854 222.255L96.6324 222.593Z" fill="white"/>
<path d="M187.356 118.398C186.206 118.974 184.915 119.209 183.636 119.074C172.132 118.991 160.433 119.004 149.12 119.017C144.887 119.022 140.654 119.025 136.42 119.026C132.212 119.024 128.002 119.02 123.789 119.016C121.022 119.012 118.235 119.009 115.427 119.006C107.012 119 98.4652 119.009 90.0255 119.077C88.6812 119.221 87.3237 118.978 86.1126 118.377C85.7131 118.056 85.4043 117.637 85.2166 117.161C85.0288 116.684 84.9687 116.167 85.0421 115.66C84.9862 115.2 85.0499 114.733 85.2271 114.305C85.4042 113.877 85.6888 113.502 86.0533 113.216C86.1455 113.153 86.2417 113.097 86.3414 113.048C87.49 112.616 88.7189 112.438 89.943 112.528H90.0114C123.222 112.603 153.841 112.6 183.621 112.522C184.911 112.394 186.212 112.633 187.373 113.211C187.752 113.516 188.046 113.913 188.225 114.365C188.404 114.817 188.462 115.308 188.394 115.789C188.463 116.277 188.403 116.774 188.221 117.231C188.039 117.689 187.741 118.091 187.356 118.398V118.398Z" fill="white"/>
<path d="M89.8599 119.997C88.3859 120.136 86.9037 119.838 85.5983 119.139C85.079 118.731 84.6715 118.198 84.4138 117.589C84.156 116.981 84.0564 116.317 84.1242 115.66C84.0649 115.05 84.1637 114.435 84.4112 113.874C84.6586 113.314 85.0464 112.826 85.537 112.459C85.663 112.374 85.7946 112.297 85.9307 112.229C87.2043 111.724 88.5756 111.514 89.9421 111.613C123.116 111.688 153.735 111.686 183.617 111.607C185.093 111.461 186.58 111.756 187.888 112.455C188.34 112.89 188.699 113.411 188.943 113.988C189.188 114.565 189.313 115.186 189.311 115.812C189.309 116.439 189.18 117.059 188.932 117.634C188.684 118.21 188.322 118.729 187.868 119.161V119.161C186.569 119.854 185.094 120.144 183.629 119.993C172.076 119.91 160.406 119.923 149.12 119.936L136.42 119.946L115.426 119.926C107.013 119.92 98.4693 119.929 90.0314 119.997L89.8599 119.997ZM90.0089 113.448C88.9051 113.363 87.7958 113.508 86.7502 113.871C86.6872 113.902 86.6263 113.938 86.568 113.977C86.286 114.169 85.9625 114.534 85.959 115.665C85.9559 116.989 86.2942 117.396 86.6254 117.62C87.6883 118.099 88.8596 118.286 90.0189 118.163C98.4592 118.095 107.01 118.086 115.427 118.092L136.42 118.112L149.117 118.102C160.407 118.089 172.08 118.076 183.642 118.159C184.736 118.276 185.841 118.097 186.842 117.64V117.64C187.155 117.429 187.475 117.044 187.476 115.791C187.477 114.561 187.164 114.182 186.856 113.973C185.841 113.517 184.725 113.334 183.617 113.442C153.737 113.521 123.116 113.523 90.0081 113.448H90.0089Z" fill="#868E96"/>
<path d="M89.671 148.814H89.7295C121.232 148.901 152.863 148.901 183.747 148.812H183.808C187.658 148.812 188.334 149.863 188.387 152.205C188.458 152.673 188.405 153.151 188.234 153.591C188.063 154.032 187.78 154.42 187.412 154.717C186.204 155.328 184.842 155.571 183.497 155.414C172.075 155.335 160.463 155.348 149.233 155.359C140.864 155.368 132.494 155.368 124.125 155.359C121.32 155.356 118.493 155.353 115.647 155.351C107.115 155.345 98.4474 155.354 89.8888 155.415C88.5677 155.56 87.2327 155.321 86.0446 154.725C85.6694 154.424 85.3799 154.031 85.2051 153.583C85.0303 153.135 84.9764 152.649 85.0489 152.174C85.0806 149.9 85.7819 148.814 89.671 148.814Z" fill="white"/>
<path d="M89.6676 156.332C88.232 156.469 86.7885 156.172 85.5232 155.48C85.0275 155.091 84.6393 154.582 84.3955 154.001C84.1517 153.42 84.0604 152.787 84.1302 152.161C84.1737 149.052 85.6751 147.896 89.67 147.896H89.7283C121.199 147.984 152.828 147.983 183.743 147.895C187.794 147.895 189.232 149.017 189.303 152.184C189.382 152.804 189.297 153.434 189.057 154.01C188.816 154.587 188.429 155.09 187.934 155.471C186.575 156.207 185.022 156.507 183.487 156.33C172.019 156.251 160.436 156.264 149.233 156.275C140.863 156.285 132.493 156.285 124.123 156.275L115.644 156.267C107.114 156.262 98.45 156.27 89.8936 156.331C89.8174 156.332 89.7421 156.333 89.6676 156.332ZM89.67 148.813V149.73C85.9994 149.73 85.9863 150.655 85.9649 152.186C85.948 153.382 86.2584 153.758 86.5636 153.969C87.6023 154.436 88.7468 154.618 89.8793 154.497C98.4421 154.436 107.111 154.427 115.646 154.433L124.125 154.441C132.495 154.45 140.863 154.45 149.231 154.441C160.438 154.429 172.026 154.416 183.502 154.496C184.659 154.627 185.829 154.443 186.889 153.963C187.173 153.766 187.496 153.391 187.469 152.226C187.432 150.616 187.413 149.73 183.808 149.73C152.831 149.818 121.197 149.819 89.7257 149.731L89.67 148.813Z" fill="#868E96"/>
<path d="M89.6603 130.672H89.7196C121.157 130.759 152.789 130.759 183.739 130.672H183.801C187.664 130.672 188.34 131.709 188.387 134.021C188.457 134.488 188.402 134.964 188.229 135.403C188.056 135.842 187.77 136.227 187.401 136.52C186.195 137.116 184.845 137.356 183.508 137.212C171.971 137.136 160.24 137.147 148.898 137.159C140.544 137.168 132.19 137.168 123.836 137.159C112.712 137.148 101.209 137.135 89.8974 137.213C88.5753 137.359 87.2392 137.121 86.0492 136.526C85.6767 136.23 85.3884 135.841 85.213 135.398C85.0377 134.956 84.9814 134.475 85.0497 134.003C85.0829 131.748 85.7831 130.672 89.6603 130.672Z" fill="white"/>
<path d="M89.6442 138.13C88.22 138.257 86.7899 137.962 85.5316 137.283C85.0306 136.904 84.6376 136.401 84.3919 135.822C84.1461 135.244 84.0562 134.612 84.1311 133.988C84.1768 130.902 85.6751 129.754 89.6589 129.754H89.7182C121.162 129.841 152.793 129.841 183.735 129.754C187.799 129.754 189.239 130.865 189.303 134.002C189.38 134.621 189.293 135.25 189.05 135.825C188.807 136.4 188.416 136.9 187.918 137.276C186.563 137.992 185.026 138.289 183.502 138.129C171.882 138.052 160.197 138.064 148.898 138.076C140.543 138.085 132.189 138.085 123.834 138.076H123.567C112.531 138.064 101.12 138.053 89.9028 138.13C89.8151 138.13 89.7289 138.13 89.6442 138.13ZM89.6589 130.671V131.589C86.0017 131.589 85.9881 132.502 85.9656 134.015C85.9481 135.194 86.2764 135.571 86.5643 135.766C87.6047 136.235 88.7511 136.417 89.8853 136.294C101.113 136.217 112.528 136.228 123.567 136.24H123.835C132.188 136.249 140.541 136.249 148.895 136.24C160.197 136.228 171.885 136.216 183.512 136.293C184.662 136.412 185.824 136.229 186.881 135.76C187.167 135.565 187.492 135.192 187.468 134.038C187.436 132.458 187.418 131.587 183.8 131.587C152.794 131.675 121.16 131.675 89.7152 131.587L89.6589 130.671Z" fill="#868E96"/>
<path d="M187.408 172.868C186.428 173.387 185.322 173.624 184.215 173.553C183.991 173.558 183.756 173.559 183.508 173.556C172.08 173.478 160.461 173.49 149.225 173.501C140.873 173.51 132.52 173.51 124.169 173.501C112.937 173.489 101.322 173.477 89.8993 173.556C88.5737 173.7 87.2346 173.463 86.0392 172.872C85.6687 172.575 85.3822 172.187 85.2084 171.745C85.0346 171.303 84.9794 170.824 85.0484 170.354C85.0851 168.095 85.7855 167.017 89.6586 167.017H89.7179C105.411 167.06 121.167 167.082 136.873 167.082C152.579 167.082 168.237 167.059 183.735 167.016H183.796C187.662 167.016 188.338 168.054 188.387 170.37C188.457 170.835 188.404 171.311 188.232 171.75C188.06 172.188 187.776 172.574 187.408 172.868V172.868Z" fill="white"/>
<path d="M89.6877 174.478C88.246 174.609 86.7975 174.316 85.5209 173.633C85.0219 173.254 84.6309 172.751 84.3868 172.173C84.1427 171.596 84.0541 170.965 84.1298 170.343C84.18 167.252 85.6782 166.102 89.6574 166.102C105.413 166.146 121.151 166.168 136.872 166.168C152.578 166.168 168.234 166.145 183.732 166.102C187.796 166.102 189.238 167.214 189.303 170.354C189.381 170.972 189.294 171.6 189.052 172.175C188.81 172.75 188.421 173.25 187.925 173.627C186.801 174.257 185.521 174.55 184.235 174.473C184.002 174.478 183.756 174.479 183.498 174.477C172.131 174.398 160.568 174.41 149.385 174.422C140.872 174.43 132.519 174.431 124.167 174.422C112.901 174.41 101.305 174.397 89.9047 174.477C89.8315 174.478 89.759 174.478 89.6877 174.478ZM89.7141 167.937C86.004 167.937 85.9894 168.854 85.9644 170.372C85.9461 171.548 86.2705 171.923 86.5558 172.118C87.6016 172.583 88.7519 172.764 89.8902 172.643C101.3 172.563 112.899 172.575 124.115 172.588C132.52 172.597 140.871 172.596 149.223 172.588C160.57 172.576 172.136 172.563 183.513 172.643C183.753 172.645 183.979 172.644 184.193 172.639C185.122 172.7 186.05 172.52 186.888 172.114C187.171 171.92 187.493 171.549 187.469 170.393C187.436 168.809 187.418 167.937 183.795 167.937C168.192 167.981 152.504 168.003 136.733 168.003C121.071 168.003 105.363 167.981 89.7141 167.937Z" fill="#868E96"/>
<path d="M187.408 100.235C186.428 100.754 185.322 100.991 184.215 100.92C183.991 100.925 183.756 100.926 183.508 100.924C172.08 100.845 160.461 100.857 149.225 100.869C140.873 100.877 132.52 100.877 124.169 100.869C112.937 100.856 101.322 100.844 89.8993 100.924C88.5737 101.067 87.2347 100.83 86.0392 100.239C85.6687 99.9424 85.3822 99.5538 85.2084 99.1121C85.0346 98.6703 84.9794 98.1908 85.0484 97.7211C85.0851 95.4622 85.7855 94.3835 89.6586 94.3835H89.7179C105.411 94.4272 121.167 94.4489 136.873 94.4487C152.579 94.4485 168.237 94.4267 183.735 94.3828H183.796C187.662 94.3828 188.338 95.4208 188.387 97.7365C188.457 98.2022 188.404 98.6782 188.232 99.1167C188.06 99.5553 187.776 99.9408 187.408 100.235V100.235Z" fill="white"/>
<path d="M89.6879 101.841C88.2461 101.973 86.7976 101.679 85.5209 100.996C85.0219 100.617 84.6309 100.114 84.3868 99.5363C84.1427 98.959 84.0541 98.3279 84.1298 97.7057C84.18 94.6147 85.6782 93.4656 89.6574 93.4656C105.413 93.5092 121.151 93.531 136.872 93.5307C152.578 93.5307 168.234 93.5087 183.732 93.4648C187.796 93.4648 189.238 94.5775 189.303 97.7169C189.381 98.3355 189.294 98.9637 189.052 99.5383C188.81 100.113 188.421 100.614 187.925 100.99V100.99C186.801 101.62 185.521 101.913 184.235 101.836C184.002 101.841 183.756 101.842 183.498 101.84C172.131 101.761 160.568 101.773 149.385 101.785C140.872 101.793 132.519 101.794 124.167 101.785C112.901 101.772 101.306 101.76 89.9047 101.84C89.8317 101.841 89.7591 101.841 89.6879 101.841ZM89.7141 95.3004C86.0041 95.3004 85.9894 96.2169 85.9644 97.7354C85.9461 98.9116 86.2705 99.286 86.5558 99.4809C87.6017 99.9463 88.7519 100.127 89.8902 100.006C101.3 99.9257 112.899 99.9381 124.115 99.9506C132.52 99.9598 140.871 99.9594 149.223 99.9506C160.57 99.9387 172.136 99.9266 183.513 100.006C183.753 100.008 183.979 100.007 184.193 100.002C185.122 100.063 186.05 99.8826 186.887 99.4772V99.4772C187.171 99.2831 187.493 98.9117 187.469 97.7558C187.436 96.1723 187.418 95.3002 183.795 95.3002C168.186 95.344 152.492 95.366 136.713 95.3661C121.058 95.3655 105.357 95.3439 89.7137 95.3004H89.7141Z" fill="#868E96"/>
<path d="M187.408 82.094C186.428 82.6136 185.322 82.8508 184.215 82.7792C183.991 82.7843 183.756 82.7856 183.508 82.783C172.08 82.7041 160.461 82.7168 149.225 82.728C140.873 82.7364 132.52 82.7364 124.169 82.728C112.937 82.7159 101.322 82.7032 89.8993 82.783C88.5737 82.9266 87.2346 82.6892 86.0392 82.0984C85.6687 81.8018 85.3822 81.4133 85.2084 80.9716C85.0346 80.5298 84.9794 80.0503 85.0484 79.5807C85.0851 77.3218 85.7855 76.2431 89.6586 76.2431H89.7179C105.411 76.2866 121.167 76.3084 136.873 76.3082C152.579 76.3081 168.237 76.286 183.735 76.2422H183.796C187.662 76.2422 188.338 77.2802 188.387 79.5959C188.457 80.0616 188.404 80.5376 188.232 80.9761C188.06 81.4146 187.776 81.8002 187.408 82.094Z" fill="white"/>
<path d="M89.6879 83.701C88.2461 83.8322 86.7976 83.5383 85.5209 82.8557C85.0219 82.4764 84.6309 81.9731 84.3868 81.3958C84.1427 80.8185 84.0541 80.1873 84.1298 79.5651C84.18 76.4743 85.6782 75.3251 89.6574 75.3251C105.413 75.3687 121.151 75.3904 136.872 75.3903C152.578 75.3903 168.234 75.3681 183.732 75.3242C187.796 75.3242 189.238 76.4369 189.303 79.5763C189.381 80.1949 189.294 80.8231 189.052 81.3977C188.81 81.9723 188.421 82.4731 187.925 82.8498C186.801 83.4797 185.521 83.7732 184.235 83.6953C184.002 83.7006 183.756 83.7019 183.498 83.6993C172.131 83.6208 160.568 83.6331 149.385 83.6443C140.872 83.6529 132.519 83.6531 124.167 83.6443C112.901 83.6322 101.306 83.6197 89.9047 83.6993C89.8317 83.7006 89.7591 83.701 89.6879 83.701ZM89.7141 77.16C86.004 77.16 85.9894 78.0774 85.9644 79.595C85.9461 80.7709 86.2705 81.1456 86.5558 81.3405C87.6017 81.8059 88.7519 81.9869 89.8902 81.8652C101.3 81.7852 112.899 81.7977 124.115 81.8102C132.52 81.8192 140.871 81.819 149.223 81.8102C160.57 81.7983 172.136 81.786 183.513 81.8652C183.753 81.8674 183.979 81.8663 184.193 81.8616C185.122 81.923 186.05 81.7422 186.888 81.3368V81.3368C187.171 81.1425 187.493 80.7713 187.469 79.6152C187.436 78.0319 187.418 77.1596 183.795 77.1596C168.192 77.2036 152.504 77.2257 136.733 77.2257C121.071 77.2251 105.363 77.2035 89.7137 77.16H89.7141Z" fill="#868E96"/>
<path d="M187.408 63.9534C186.428 64.4729 185.322 64.7101 184.215 64.6385C183.991 64.6436 183.756 64.6448 183.508 64.6424C172.08 64.5635 160.461 64.5762 149.225 64.5873C140.873 64.5959 132.52 64.5959 124.169 64.5873C112.937 64.5752 101.322 64.5626 89.8993 64.6424C88.5737 64.7859 87.2347 64.5484 86.0392 63.9578C85.6687 63.6611 85.3822 63.2726 85.2084 62.8308C85.0346 62.3891 84.9794 61.9095 85.0484 61.4399C85.0851 59.181 85.7855 58.1023 89.6586 58.1023H89.7179C105.411 58.146 121.167 58.1676 136.873 58.1676C152.579 58.1676 168.237 58.1454 183.735 58.1016H183.796C187.662 58.1016 188.338 59.1395 188.387 61.4553C188.457 61.921 188.404 62.397 188.232 62.8355C188.06 63.274 187.776 63.6596 187.408 63.9534V63.9534Z" fill="white"/>
<path d="M89.6881 65.5602C88.2463 65.6914 86.7976 65.3975 85.521 64.7149C85.0219 64.3357 84.6309 63.8324 84.3868 63.2551C84.1427 62.6778 84.0541 62.0466 84.1298 61.4245C84.1801 58.3335 85.6782 57.1843 89.6574 57.1843C105.413 57.228 121.151 57.2498 136.872 57.2497C152.578 57.2497 168.234 57.2274 183.732 57.1836C187.796 57.1836 189.238 58.2962 189.303 61.4356C189.381 62.0543 189.294 62.6825 189.052 63.2571C188.81 63.8317 188.421 64.3325 187.925 64.7092V64.7092C186.801 65.3389 185.521 65.6324 184.235 65.5547C184.002 65.5598 183.756 65.5612 183.498 65.5587C172.124 65.4802 160.554 65.4923 149.365 65.5037C140.872 65.5125 132.519 65.5127 124.167 65.5037C112.901 65.4916 101.306 65.4791 89.9047 65.5587C89.8317 65.5598 89.7592 65.5602 89.6881 65.5602ZM89.7141 59.0192C86.0041 59.0192 85.9894 59.9366 85.9644 61.4542C85.9461 62.6303 86.2705 63.0048 86.5558 63.1998C87.6017 63.6652 88.752 63.8462 89.8903 63.7244C101.3 63.6444 112.899 63.6569 124.115 63.6694C132.52 63.6786 140.871 63.6784 149.223 63.6694C160.556 63.6575 172.129 63.6453 183.513 63.7244C183.753 63.7268 183.979 63.7255 184.193 63.7208C185.122 63.7822 186.05 63.6015 186.888 63.1962V63.1962C187.171 63.0019 187.493 62.6307 187.469 61.4745C187.436 59.8911 187.418 59.019 183.795 59.019C168.192 59.063 152.504 59.085 136.733 59.085C121.071 59.0845 105.363 59.0627 89.7137 59.0192H89.7141Z" fill="#868E96"/>
</svg>
